<svg data-v-423bf9ae="" xmlns="http://www.w3.org/2000/svg" viewBox="0 0 566 90" class="iconLeft"><!----><!----><!----><g data-v-423bf9ae="" id="ebfd2b20-8fb7-4cff-895b-5f9423e6f2d0" fill="#362120" transform="matrix(6.054490506946714,0,0,6.054490506946714,144.32901442557787,12.457113826432519)"><path d="M0.70 5.33L0.70 5.33Q0.70 4.20 1.01 3.29Q1.31 2.39 1.92 1.75Q2.52 1.11 3.42 0.76Q4.31 0.42 5.50 0.42L5.50 0.42Q6.38 0.42 7.05 0.57Q7.72 0.73 8.22 1.03Q8.71 1.32 9.05 1.74Q9.39 2.16 9.63 2.69L9.63 2.69L8.39 3.06Q8.21 2.70 7.96 2.41Q7.71 2.12 7.36 1.91Q7 1.71 6.53 1.60Q6.06 1.48 5.46 1.48L5.46 1.48Q4.59 1.48 3.94 1.76Q3.29 2.03 2.87 2.54Q2.45 3.04 2.24 3.75Q2.03 4.46 2.03 5.33L2.03 5.33Q2.03 6.20 2.26 6.92Q2.48 7.64 2.93 8.17Q3.37 8.69 4.03 8.98Q4.69 9.27 5.56 9.27L5.56 9.27Q6.13 9.27 6.60 9.17Q7.08 9.08 7.47 8.92Q7.85 8.77 8.15 8.58Q8.44 8.39 8.64 8.20L8.64 8.20L8.64 6.47L5.76 6.47L5.76 5.37L9.84 5.37L9.84 8.70Q9.52 9.02 9.09 9.32Q8.65 9.62 8.11 9.84Q7.57 10.07 6.93 10.20Q6.29 10.33 5.56 10.33L5.56 10.33Q4.34 10.33 3.43 9.96Q2.52 9.58 1.92 8.92Q1.31 8.25 1.01 7.33Q0.70 6.42 0.70 5.33ZM13.72 10.33L13.72 10.33Q12.61 10.33 12.04 9.74Q11.48 9.15 11.48 8.13L11.48 8.13Q11.48 7.40 11.76 6.93Q12.04 6.46 12.49 6.19Q12.93 5.93 13.51 5.82Q14.08 5.72 14.68 5.71L14.68 5.71L16.34 5.68L16.34 5.28Q16.34 4.82 16.24 4.50Q16.15 4.18 15.95 3.98Q15.75 3.78 15.45 3.69Q15.16 3.60 14.75 3.60L14.75 3.60Q14.40 3.60 14.11 3.65Q13.82 3.70 13.61 3.83Q13.40 3.96 13.27 4.19Q13.14 4.42 13.10 4.77L13.10 4.77L11.81 4.66Q11.88 4.22 12.07 3.85Q12.26 3.49 12.62 3.22Q12.97 2.95 13.50 2.81Q14.03 2.66 14.78 2.66L14.78 2.66Q16.17 2.66 16.88 3.30Q17.58 3.94 17.58 5.15L17.58 5.15L17.58 8.33Q17.58 8.88 17.73 9.16Q17.87 9.43 18.27 9.43L18.27 9.43Q18.38 9.43 18.48 9.42Q18.58 9.41 18.68 9.39L18.68 9.39L18.68 10.15Q18.44 10.21 18.21 10.23Q17.99 10.26 17.73 10.26L17.73 10.26Q17.38 10.26 17.13 10.17Q16.88 10.08 16.72 9.89Q16.56 9.70 16.48 9.42Q16.40 9.15 16.38 8.78L16.38 8.78L16.34 8.78Q16.14 9.13 15.90 9.42Q15.67 9.71 15.35 9.91Q15.04 10.11 14.64 10.22Q14.24 10.33 13.72 10.33ZM14 9.41L14 9.41Q14.59 9.41 15.03 9.19Q15.47 8.98 15.76 8.64Q16.05 8.31 16.19 7.91Q16.34 7.51 16.34 7.15L16.34 7.15L16.34 6.54L14.99 6.57Q14.54 6.58 14.13 6.63Q13.73 6.69 13.42 6.86Q13.11 7.03 12.93 7.34Q12.75 7.65 12.75 8.15L12.75 8.15Q12.75 8.75 13.07 9.08Q13.40 9.41 14 9.41ZM25.17 8.15L25.17 8.15Q25.17 8.67 24.97 9.07Q24.77 9.48 24.38 9.76Q24.00 10.04 23.44 10.18Q22.89 10.33 22.17 10.33L22.17 10.33Q21.53 10.33 21.01 10.23Q20.49 10.13 20.10 9.91Q19.71 9.69 19.45 9.33Q19.19 8.98 19.07 8.46L19.07 8.46L20.15 8.24Q20.31 8.84 20.80 9.12Q21.29 9.39 22.17 9.39L22.17 9.39Q22.57 9.39 22.90 9.34Q23.23 9.28 23.47 9.15Q23.71 9.02 23.84 8.79Q23.97 8.57 23.97 8.24L23.97 8.24Q23.97 7.91 23.82 7.69Q23.66 7.48 23.38 7.33Q23.10 7.19 22.70 7.09Q22.30 6.98 21.82 6.85L21.82 6.85Q21.38 6.73 20.94 6.59Q20.50 6.45 20.15 6.21Q19.80 5.97 19.58 5.63Q19.36 5.28 19.36 4.75L19.36 4.75Q19.36 3.74 20.08 3.21Q20.80 2.68 22.18 2.68L22.18 2.68Q23.41 2.68 24.13 3.11Q24.85 3.54 25.04 4.49L25.04 4.49L23.93 4.63Q23.87 4.34 23.71 4.15Q23.54 3.95 23.31 3.83Q23.08 3.71 22.79 3.66Q22.50 3.61 22.18 3.61L22.18 3.61Q21.35 3.61 20.95 3.86Q20.56 4.12 20.56 4.63L20.56 4.63Q20.56 4.93 20.70 5.12Q20.85 5.32 21.11 5.45Q21.38 5.58 21.75 5.68Q22.11 5.78 22.56 5.89L22.56 5.89Q22.85 5.97 23.16 6.05Q23.47 6.14 23.76 6.26Q24.05 6.38 24.31 6.54Q24.56 6.70 24.75 6.92Q24.94 7.15 25.06 7.45Q25.17 7.75 25.17 8.15ZM32.17 8.15L32.17 8.15Q32.17 8.67 31.97 9.07Q31.77 9.48 31.38 9.76Q31.00 10.04 30.44 10.18Q29.89 10.33 29.17 10.33L29.17 10.33Q28.53 10.33 28.01 10.23Q27.49 10.13 27.10 9.91Q26.71 9.69 26.45 9.33Q26.19 8.98 26.07 8.46L26.07 8.46L27.15 8.24Q27.31 8.84 27.80 9.12Q28.29 9.39 29.17 9.39L29.17 9.39Q29.57 9.39 29.90 9.34Q30.23 9.28 30.47 9.15Q30.71 9.02 30.84 8.79Q30.97 8.57 30.97 8.24L30.97 8.24Q30.97 7.91 30.82 7.69Q30.66 7.48 30.38 7.33Q30.10 7.19 29.70 7.09Q29.30 6.98 28.82 6.85L28.82 6.85Q28.38 6.73 27.94 6.59Q27.50 6.45 27.15 6.21Q26.80 5.97 26.58 5.63Q26.36 5.28 26.36 4.75L26.36 4.75Q26.36 3.74 27.08 3.21Q27.80 2.68 29.18 2.68L29.18 2.68Q30.41 2.68 31.13 3.11Q31.85 3.54 32.04 4.49L32.04 4.49L30.93 4.63Q30.87 4.34 30.71 4.15Q30.54 3.95 30.31 3.83Q30.08 3.71 29.79 3.66Q29.50 3.61 29.18 3.61L29.18 3.61Q28.35 3.61 27.95 3.86Q27.56 4.12 27.56 4.63L27.56 4.63Q27.56 4.93 27.70 5.12Q27.85 5.32 28.11 5.45Q28.38 5.58 28.75 5.68Q29.11 5.78 29.56 5.89L29.56 5.89Q29.85 5.97 30.16 6.05Q30.47 6.14 30.76 6.26Q31.05 6.38 31.31 6.54Q31.56 6.70 31.75 6.92Q31.94 7.15 32.06 7.45Q32.17 7.75 32.17 8.15ZM36.46 9.23L36.46 10.14Q36.18 10.21 35.89 10.26Q35.60 10.30 35.22 10.30L35.22 10.30Q33.74 10.30 33.74 8.63L33.74 8.63L33.74 3.69L32.89 3.69L32.89 2.80L33.79 2.80L34.15 1.14L34.97 1.14L34.97 2.80L36.34 2.80L36.34 3.69L34.97 3.69L34.97 8.36Q34.97 8.89 35.15 9.11Q35.32 9.32 35.75 9.32L35.75 9.32Q35.93 9.32 36.10 9.30Q36.26 9.27 36.46 9.23L36.46 9.23ZM37.47 2.80L38.71 2.80L38.71 7.49Q38.71 8.03 38.79 8.39Q38.87 8.75 39.05 8.97Q39.22 9.19 39.52 9.29Q39.81 9.38 40.24 9.38L40.24 9.38Q40.67 9.38 41.03 9.23Q41.38 9.07 41.63 8.78Q41.88 8.49 42.01 8.06Q42.15 7.64 42.15 7.08L42.15 7.08L42.15 2.80L43.38 2.80L43.38 8.61Q43.38 8.85 43.38 9.10Q43.39 9.36 43.39 9.59Q43.40 9.82 43.41 9.98Q43.42 10.14 43.42 10.19L43.42 10.19L42.26 10.19Q42.25 10.16 42.25 10.01Q42.24 9.86 42.23 9.66Q42.22 9.47 42.21 9.27Q42.21 9.06 42.21 8.93L42.21 8.93L42.18 8.93Q42.01 9.25 41.79 9.51Q41.58 9.77 41.30 9.95Q41.02 10.13 40.66 10.23Q40.30 10.33 39.82 10.33L39.82 10.33Q39.20 10.33 38.76 10.18Q38.32 10.03 38.03 9.71Q37.74 9.40 37.61 8.91Q37.47 8.42 37.47 7.72L37.47 7.72L37.47 2.80ZM45.06 5.33L45.06 5.33Q45.06 4.20 45.36 3.29Q45.66 2.39 46.27 1.75Q46.87 1.11 47.77 0.76Q48.67 0.42 49.85 0.42L49.85 0.42Q50.74 0.42 51.41 0.57Q52.08 0.73 52.57 1.03Q53.06 1.32 53.40 1.74Q53.74 2.16 53.98 2.69L53.98 2.69L52.74 3.06Q52.56 2.70 52.31 2.41Q52.06 2.12 51.71 1.91Q51.35 1.71 50.88 1.60Q50.42 1.48 49.81 1.48L49.81 1.48Q48.94 1.48 48.29 1.76Q47.65 2.03 47.22 2.54Q46.80 3.04 46.59 3.75Q46.38 4.46 46.38 5.33L46.38 5.33Q46.38 6.20 46.61 6.92Q46.83 7.64 47.28 8.17Q47.72 8.69 48.38 8.98Q49.04 9.27 49.91 9.27L49.91 9.27Q50.48 9.27 50.96 9.17Q51.43 9.08 51.82 8.92Q52.21 8.77 52.50 8.58Q52.79 8.39 52.99 8.20L52.99 8.20L52.99 6.47L50.11 6.47L50.11 5.37L54.20 5.37L54.20 8.70Q53.87 9.02 53.44 9.32Q53.01 9.62 52.47 9.84Q51.93 10.07 51.28 10.20Q50.64 10.33 49.91 10.33L49.91 10.33Q48.69 10.33 47.78 9.96Q46.87 9.58 46.27 8.92Q45.66 8.25 45.36 7.33Q45.06 6.42 45.06 5.33ZM58.07 10.33L58.07 10.33Q56.96 10.33 56.40 9.74Q55.84 9.15 55.84 8.13L55.84 8.13Q55.84 7.40 56.11 6.93Q56.39 6.46 56.84 6.19Q57.29 5.93 57.86 5.82Q58.43 5.72 59.03 5.71L59.03 5.71L60.69 5.68L60.69 5.28Q60.69 4.82 60.59 4.50Q60.50 4.18 60.30 3.98Q60.10 3.78 59.80 3.69Q59.51 3.60 59.10 3.60L59.10 3.60Q58.75 3.60 58.46 3.65Q58.17 3.70 57.96 3.83Q57.75 3.96 57.62 4.19Q57.49 4.42 57.45 4.77L57.45 4.77L56.16 4.66Q56.23 4.22 56.42 3.85Q56.62 3.49 56.97 3.22Q57.32 2.95 57.85 2.81Q58.38 2.66 59.13 2.66L59.13 2.66Q60.53 2.66 61.23 3.30Q61.93 3.94 61.93 5.15L61.93 5.15L61.93 8.33Q61.93 8.88 62.08 9.16Q62.22 9.43 62.62 9.43L62.62 9.43Q62.73 9.43 62.83 9.42Q62.93 9.41 63.03 9.39L63.03 9.39L63.03 10.15Q62.79 10.21 62.57 10.23Q62.34 10.26 62.08 10.26L62.08 10.26Q61.73 10.26 61.48 10.17Q61.23 10.08 61.07 9.89Q60.92 9.70 60.83 9.42Q60.75 9.15 60.73 8.78L60.73 8.78L60.69 8.78Q60.49 9.13 60.26 9.42Q60.02 9.71 59.71 9.91Q59.39 10.11 58.99 10.22Q58.59 10.33 58.07 10.33ZM58.35 9.41L58.35 9.41Q58.94 9.41 59.38 9.19Q59.82 8.98 60.11 8.64Q60.40 8.31 60.55 7.91Q60.69 7.51 60.69 7.15L60.69 7.15L60.69 6.54L59.34 6.57Q58.89 6.58 58.48 6.63Q58.08 6.69 57.77 6.86Q57.46 7.03 57.28 7.34Q57.10 7.65 57.10 8.15L57.10 8.15Q57.10 8.75 57.43 9.08Q57.75 9.41 58.35 9.41ZM69.52 8.15L69.52 8.15Q69.52 8.67 69.32 9.07Q69.12 9.48 68.74 9.76Q68.35 10.04 67.80 10.18Q67.24 10.33 66.52 10.33L66.52 10.33Q65.88 10.33 65.36 10.23Q64.85 10.13 64.46 9.91Q64.07 9.69 63.80 9.33Q63.54 8.98 63.42 8.46L63.42 8.46L64.50 8.24Q64.66 8.84 65.15 9.12Q65.65 9.39 66.52 9.39L66.52 9.39Q66.92 9.39 67.25 9.34Q67.58 9.28 67.82 9.15Q68.06 9.02 68.19 8.79Q68.33 8.57 68.33 8.24L68.33 8.24Q68.33 7.91 68.17 7.69Q68.01 7.48 67.73 7.33Q67.45 7.19 67.05 7.09Q66.65 6.98 66.17 6.85L66.17 6.85Q65.73 6.73 65.29 6.59Q64.85 6.45 64.50 6.21Q64.15 5.97 63.93 5.63Q63.71 5.28 63.71 4.75L63.71 4.75Q63.71 3.74 64.43 3.21Q65.15 2.68 66.53 2.68L66.53 2.68Q67.76 2.68 68.48 3.11Q69.20 3.54 69.39 4.49L69.39 4.49L68.28 4.63Q68.22 4.34 68.06 4.15Q67.89 3.95 67.66 3.83Q67.43 3.71 67.14 3.66Q66.85 3.61 66.53 3.61L66.53 3.61Q65.70 3.61 65.30 3.86Q64.91 4.12 64.91 4.63L64.91 4.63Q64.91 4.93 65.05 5.12Q65.20 5.32 65.46 5.45Q65.73 5.58 66.10 5.68Q66.47 5.78 66.91 5.89L66.91 5.89Q67.20 5.97 67.51 6.05Q67.82 6.14 68.11 6.26Q68.40 6.38 68.66 6.54Q68.91 6.70 69.10 6.92Q69.30 7.15 69.41 7.45Q69.52 7.75 69.52 8.15Z"></path></g><defs data-v-423bf9ae=""><linearGradient data-v-423bf9ae="" gradientTransform="rotate(25)" id="e48ab920-f975-4f96-96d6-62e13c9af3ca" x1="0%" y1="0%" x2="100%" y2="0%"><stop data-v-423bf9ae="" offset="0%" style="stop-color: rgb(90, 14, 29); stop-opacity: 1;"></stop><stop data-v-423bf9ae="" offset="100%" style="stop-color: rgb(179, 153, 132); stop-opacity: 1;"></stop></linearGradient></defs><g data-v-423bf9ae="" id="21b31201-328b-4c68-9204-1900e96eaf01" transform="matrix(3.749843842333684,0,0,3.749843842333684,0.7164302342380466,0)" stroke="none" fill="url(#e48ab920-f975-4f96-96d6-62e13c9af3ca)"><path d="M12 10.286l6.857 6.857L12 24.001l-12-12 12-12 3 3-1.714 1.714L12 3.429 3.429 12 12 20.571l3.446-3.446L10.285 12zM22.286 0l12 12-12 12-3-3L21 19.286l1.286 1.286 8.571-8.571-8.571-8.571-3.446 3.446 5.161 5.125-1.714 1.714-6.857-6.857z"></path></g><!----></svg>