<svg width="566" height="90" viewBox="0 0 566 90" fill="none" xmlns="http://www.w3.org/2000/svg">
<g clip-path="url(#clip0_509_97)">
<mask id="path-1-outside-1_509_97" maskUnits="userSpaceOnUse" x="145.567" y="12" width="423" height="66" fill="black">
<rect fill="white" x="145.567" y="12" width="423" height="66"/>
<path d="M148.567 44.7275C148.567 40.1665 149.193 36.0494 150.444 32.3764C151.655 28.7437 153.491 25.6357 155.954 23.0525C158.375 20.4692 161.403 18.4712 165.035 17.0585C168.628 15.6862 172.825 15 177.629 15C181.181 15 184.309 15.3027 187.013 15.9082C189.717 16.554 192.079 17.4823 194.097 18.6932C196.075 19.8638 197.75 21.2967 199.122 22.9919C200.494 24.6872 201.665 26.6044 202.634 28.7437L195.126 30.9839C194.4 29.5308 193.532 28.219 192.523 27.0484C191.514 25.8779 190.303 24.8688 188.89 24.0212C187.437 23.2139 185.762 22.5883 183.865 22.1443C181.968 21.6599 179.808 21.4178 177.387 21.4178C173.875 21.4178 170.807 21.9828 168.184 23.113C165.56 24.2028 163.401 25.777 161.705 27.8355C160.01 29.8537 158.739 32.2957 157.891 35.1615C157.043 38.0272 156.62 41.2159 156.62 44.7275C156.62 48.2392 157.084 51.448 158.012 54.3542C158.9 57.2603 160.252 59.783 162.069 61.9223C163.845 64.0212 166.065 65.6559 168.729 66.8264C171.393 67.997 174.48 68.5822 177.992 68.5822C180.293 68.5822 182.392 68.3804 184.289 67.9768C186.226 67.6135 187.982 67.109 189.556 66.4632C191.09 65.8577 192.462 65.1715 193.673 64.4046C194.844 63.6377 195.833 62.8708 196.64 62.1039V51.6297H179.203V44.9697H203.905V65.1312C202.614 66.4228 201.1 67.6741 199.364 68.885C197.588 70.0959 195.611 71.1453 193.431 72.0333C191.251 72.9617 188.87 73.6882 186.287 74.2129C183.703 74.7376 180.938 75 177.992 75C173.068 75 168.769 74.2533 165.096 72.7598C161.423 71.226 158.375 69.1271 155.954 66.4632C153.491 63.7588 151.655 60.5499 150.444 56.8365C149.193 53.1635 148.567 49.1271 148.567 44.7275ZM227.397 75C222.916 75 219.526 73.8093 217.225 71.4279C214.965 69.0464 213.835 65.7972 213.835 61.6801C213.835 58.7336 214.4 56.3118 215.53 54.4147C216.66 52.5177 218.133 51.0242 219.95 49.9344C221.726 48.885 223.784 48.1382 226.125 47.6942C228.426 47.2906 230.787 47.0686 233.209 47.0283L243.259 46.8466V44.4248C243.259 42.5681 243.058 40.9939 242.654 39.7023C242.291 38.4107 241.705 37.3613 240.898 36.554C240.091 35.7467 239.082 35.1615 237.871 34.7982C236.7 34.4349 235.288 34.2533 233.633 34.2533C232.22 34.2533 230.928 34.3542 229.758 34.556C228.587 34.7578 227.578 35.1211 226.731 35.6458C225.883 36.1705 225.197 36.8971 224.672 37.8254C224.147 38.7538 223.804 39.9243 223.643 41.337L215.833 40.671C216.115 38.8951 216.64 37.2603 217.407 35.7669C218.174 34.3138 219.284 33.0424 220.737 31.9526C222.149 30.8628 223.925 30.0353 226.065 29.4702C228.204 28.8648 230.787 28.5621 233.814 28.5621C239.425 28.5621 243.663 29.8537 246.529 32.4369C249.354 35.0202 250.767 38.7538 250.767 43.6377V62.891C250.767 65.111 251.07 66.7861 251.675 67.9162C252.24 69.0061 253.33 69.551 254.945 69.551C255.389 69.551 255.812 69.5308 256.216 69.4904C256.62 69.4501 257.023 69.3895 257.427 69.3088V73.9102C256.458 74.1524 255.51 74.3138 254.581 74.3945C253.693 74.5156 252.725 74.5762 251.675 74.5762C250.262 74.5762 249.051 74.3946 248.042 74.0313C247.033 73.668 246.206 73.1029 245.56 72.336C244.914 71.5691 244.43 70.6206 244.107 69.4904C243.784 68.4006 243.582 67.109 243.502 65.6155H243.259C242.452 67.0283 241.564 68.3199 240.595 69.4904C239.667 70.6609 238.557 71.6498 237.265 72.4571C236.014 73.2644 234.581 73.89 232.967 74.334C231.352 74.778 229.495 75 227.397 75ZM229.092 69.4299C231.473 69.4299 233.552 68.9859 235.328 68.0979C237.104 67.2503 238.577 66.1403 239.748 64.7679C240.918 63.4359 241.786 61.9627 242.351 60.3481C242.957 58.7336 243.259 57.1998 243.259 55.7467V52.0535L235.086 52.2351C233.269 52.2755 231.534 52.3966 229.879 52.5984C228.264 52.8406 226.832 53.3047 225.58 53.9909C224.329 54.6771 223.34 55.6458 222.614 56.8971C221.887 58.1483 221.524 59.783 221.524 61.8012C221.524 64.223 222.17 66.0999 223.461 67.4319C224.793 68.7639 226.67 69.4299 229.092 69.4299ZM296.721 61.8012C296.721 63.9001 296.317 65.7568 295.51 67.3713C294.702 69.0262 293.512 70.4188 291.937 71.5489C290.404 72.6791 288.507 73.5267 286.246 74.0918C284.026 74.6973 281.463 75 278.557 75C275.974 75 273.633 74.7982 271.534 74.3945C269.435 73.9909 267.598 73.3451 266.024 72.4571C264.45 71.5691 263.138 70.3986 262.089 68.9455C261.039 67.5328 260.272 65.777 259.788 63.6781L266.327 62.3461C266.973 64.7679 268.285 66.5439 270.262 67.6741C272.24 68.7639 275.005 69.3088 278.557 69.3088C280.172 69.3088 281.645 69.2079 282.977 69.0061C284.309 68.7639 285.459 68.3804 286.428 67.8557C287.397 67.331 288.143 66.6044 288.668 65.6761C289.193 64.7881 289.455 63.6781 289.455 62.3461C289.455 61.0141 289.152 59.9041 288.547 59.0161C287.901 58.1685 287.013 57.442 285.883 56.8365C284.753 56.2714 283.38 55.7871 281.766 55.3835C280.151 54.9395 278.375 54.4551 276.438 53.9304C274.662 53.446 272.886 52.9213 271.11 52.3562C269.334 51.7911 267.74 51.0242 266.327 50.0555C264.914 49.0868 263.764 47.9162 262.876 46.5439C261.988 45.1312 261.544 43.3552 261.544 41.2159C261.544 37.1393 262.997 34.0313 265.903 31.892C268.809 29.7528 273.047 28.6831 278.618 28.6831C283.582 28.6831 287.518 29.551 290.424 31.2866C293.33 33.0222 295.167 35.8073 295.933 39.6418L289.213 40.4894C288.971 39.3189 288.527 38.3502 287.881 37.5832C287.195 36.776 286.388 36.1302 285.459 35.6458C284.531 35.1615 283.481 34.8184 282.311 34.6165C281.14 34.4147 279.909 34.3138 278.618 34.3138C275.267 34.3138 272.785 34.8184 271.171 35.8274C269.596 36.8769 268.809 38.4309 268.809 40.4894C268.809 41.7003 269.092 42.6892 269.657 43.4561C270.262 44.2634 271.09 44.9294 272.139 45.4541C273.229 45.9788 274.521 46.443 276.014 46.8466C277.467 47.2503 279.102 47.6741 280.918 48.1181C282.089 48.441 283.3 48.7639 284.551 49.0868C285.802 49.4501 287.013 49.8739 288.184 50.3582C289.354 50.8426 290.464 51.4077 291.514 52.0535C292.523 52.6993 293.411 53.4662 294.178 54.3542C294.945 55.2825 295.57 56.3522 296.055 57.5631C296.499 58.774 296.721 60.1867 296.721 61.8012ZM339.102 61.8012C339.102 63.9001 338.698 65.7568 337.891 67.3713C337.084 69.0262 335.893 70.4188 334.319 71.5489C332.785 72.6791 330.888 73.5267 328.628 74.0918C326.408 74.6973 323.845 75 320.938 75C318.355 75 316.014 74.7982 313.915 74.3945C311.816 73.9909 309.98 73.3451 308.406 72.4571C306.832 71.5691 305.52 70.3986 304.47 68.9455C303.421 67.5328 302.654 65.777 302.17 63.6781L308.708 62.3461C309.354 64.7679 310.666 66.5439 312.644 67.6741C314.622 68.7639 317.387 69.3088 320.938 69.3088C322.553 69.3088 324.026 69.2079 325.358 69.0061C326.69 68.7639 327.841 68.3804 328.809 67.8557C329.778 67.331 330.525 66.6044 331.049 65.6761C331.574 64.7881 331.837 63.6781 331.837 62.3461C331.837 61.0141 331.534 59.9041 330.928 59.0161C330.283 58.1685 329.395 57.442 328.264 56.8365C327.134 56.2714 325.762 55.7871 324.147 55.3835C322.533 54.9395 320.757 54.4551 318.819 53.9304C317.043 53.446 315.267 52.9213 313.491 52.3562C311.715 51.7911 310.121 51.0242 308.708 50.0555C307.296 49.0868 306.145 47.9162 305.257 46.5439C304.369 45.1312 303.925 43.3552 303.925 41.2159C303.925 37.1393 305.378 34.0313 308.285 31.892C311.191 29.7528 315.429 28.6831 320.999 28.6831C325.964 28.6831 329.899 29.551 332.805 31.2866C335.711 33.0222 337.548 35.8073 338.315 39.6418L331.594 40.4894C331.352 39.3189 330.908 38.3502 330.262 37.5832C329.576 36.776 328.769 36.1302 327.841 35.6458C326.912 35.1615 325.863 34.8184 324.692 34.6165C323.522 34.4147 322.291 34.3138 320.999 34.3138C317.649 34.3138 315.167 34.8184 313.552 35.8274C311.978 36.8769 311.191 38.4309 311.191 40.4894C311.191 41.7003 311.473 42.6892 312.038 43.4561C312.644 44.2634 313.471 44.9294 314.521 45.4541C315.611 45.9788 316.902 46.443 318.396 46.8466C319.849 47.2503 321.483 47.6741 323.3 48.1181C324.47 48.441 325.681 48.7639 326.932 49.0868C328.184 49.4501 329.395 49.8739 330.565 50.3582C331.736 50.8426 332.846 51.4077 333.895 52.0535C334.904 52.6993 335.792 53.4662 336.559 54.3542C337.326 55.2825 337.952 56.3522 338.436 57.5631C338.88 58.774 339.102 60.1867 339.102 61.8012ZM365.076 68.3401V73.8496C363.946 74.1322 362.795 74.3744 361.625 74.5762C360.454 74.7376 359.102 74.8184 357.568 74.8184C351.594 74.8184 348.608 71.448 348.608 64.7074V34.7982H343.461V29.4097H348.91L351.09 19.3592H356.055V29.4097H364.349V34.7982H356.055V63.0727C356.055 65.2119 356.418 66.7255 357.144 67.6135C357.831 68.4611 359.041 68.885 360.777 68.885C361.504 68.885 362.21 68.8446 362.896 68.7639C363.542 68.6428 364.268 68.5015 365.076 68.3401ZM371.191 29.4097H378.698V57.8052C378.698 59.9849 378.86 61.8012 379.183 63.2543C379.506 64.7074 380.03 65.8779 380.757 66.7659C381.443 67.6539 382.392 68.2997 383.602 68.7033C384.773 69.0666 386.226 69.2482 387.962 69.2482C389.697 69.2482 391.292 68.9455 392.745 68.3401C394.157 67.6942 395.368 66.7861 396.377 65.6155C397.387 64.445 398.153 62.9919 398.678 61.2563C399.243 59.5611 399.526 57.5832 399.526 55.3229V29.4097H406.973V64.5863C406.973 65.555 406.973 66.5439 406.973 67.553C407.013 68.6024 407.033 69.5913 407.033 70.5197C407.074 71.448 407.114 72.2351 407.154 72.8809C407.195 73.5267 407.215 73.9506 407.215 74.1524H400.192C400.151 74.0313 400.131 73.668 400.131 73.0626C400.091 72.4571 400.05 71.7508 400.01 70.9435C399.97 70.1766 399.929 69.3895 399.889 68.5822C399.889 67.7346 399.889 67.0484 399.889 66.5237H399.707C399.021 67.8153 398.234 68.9859 397.346 70.0353C396.499 71.0848 395.51 71.9728 394.379 72.6993C393.249 73.4258 391.958 73.9909 390.505 74.3945C389.051 74.7982 387.356 75 385.419 75C382.916 75 380.777 74.6973 379.001 74.0918C377.225 73.4864 375.752 72.5378 374.581 71.2462C373.411 69.995 372.563 68.3804 372.038 66.4026C371.473 64.4248 371.191 62.0232 371.191 59.1978V29.4097ZM417.144 44.7275C417.144 40.1665 417.75 36.0494 418.961 32.3764C420.172 28.7437 422.008 25.6357 424.47 23.0525C426.892 20.4692 429.919 18.4712 433.552 17.0585C437.185 15.6862 441.382 15 446.145 15C449.738 15 452.886 15.3027 455.59 15.9082C458.295 16.554 460.636 17.4823 462.614 18.6932C464.591 19.8638 466.266 21.2967 467.639 22.9919C469.011 24.6872 470.182 26.6044 471.15 28.7437L463.643 30.9839C462.916 29.5308 462.048 28.219 461.039 27.0484C460.03 25.8779 458.819 24.8688 457.407 24.0212C455.954 23.2139 454.279 22.5883 452.381 22.1443C450.525 21.6599 448.365 21.4178 445.903 21.4178C442.392 21.4178 439.324 21.9828 436.7 23.113C434.117 24.2028 431.958 25.777 430.222 27.8355C428.527 29.8537 427.255 32.2957 426.408 35.1615C425.56 38.0272 425.136 41.2159 425.136 44.7275C425.136 48.2392 425.6 51.448 426.529 54.3542C427.417 57.2603 428.769 59.783 430.585 61.9223C432.361 64.0212 434.581 65.6559 437.245 66.8264C439.909 67.997 442.997 68.5822 446.509 68.5822C448.809 68.5822 450.928 68.3804 452.866 67.9768C454.763 67.6135 456.499 67.109 458.073 66.4632C459.647 65.8577 461.019 65.1715 462.19 64.4046C463.36 63.6377 464.349 62.8708 465.156 62.1039V51.6297H447.72V44.9697H472.482V65.1312C471.15 66.4228 469.617 67.6741 467.881 68.885C466.145 70.0959 464.188 71.1453 462.008 72.0333C459.829 72.9617 457.427 73.6882 454.803 74.2129C452.22 74.7376 449.455 75 446.509 75C441.584 75 437.286 74.2533 433.613 72.7598C429.939 71.226 426.892 69.1271 424.47 66.4632C422.008 63.7588 420.172 60.5499 418.961 56.8365C417.75 53.1635 417.144 49.1271 417.144 44.7275ZM495.913 75C491.433 75 488.063 73.8093 485.802 71.4279C483.542 69.0464 482.412 65.7972 482.412 61.6801C482.412 58.7336 482.957 56.3118 484.046 54.4147C485.177 52.5177 486.65 51.0242 488.466 49.9344C490.283 48.885 492.341 48.1382 494.642 47.6942C496.943 47.2906 499.304 47.0686 501.726 47.0283L511.776 46.8466V44.4248C511.776 42.5681 511.574 40.9939 511.171 39.7023C510.807 38.4107 510.222 37.3613 509.415 36.554C508.608 35.7467 507.598 35.1615 506.388 34.7982C505.217 34.4349 503.804 34.2533 502.149 34.2533C500.737 34.2533 499.445 34.3542 498.275 34.556C497.104 34.7578 496.095 35.1211 495.247 35.6458C494.4 36.1705 493.713 36.8971 493.189 37.8254C492.664 38.7538 492.321 39.9243 492.159 41.337L484.349 40.671C484.632 38.8951 485.156 37.2603 485.923 35.7669C486.731 34.3138 487.841 33.0424 489.253 31.9526C490.666 30.8628 492.442 30.0353 494.581 29.4702C496.721 28.8648 499.304 28.5621 502.331 28.5621C507.982 28.5621 512.22 29.8537 515.045 32.4369C517.871 35.0202 519.284 38.7538 519.284 43.6377V62.891C519.284 65.111 519.586 66.7861 520.192 67.9162C520.757 69.0061 521.847 69.551 523.461 69.551C523.905 69.551 524.329 69.5308 524.733 69.4904C525.136 69.4501 525.54 69.3895 525.944 69.3088V73.9102C524.975 74.1524 524.046 74.3138 523.158 74.3945C522.23 74.5156 521.241 74.5762 520.192 74.5762C518.779 74.5762 517.568 74.3946 516.559 74.0313C515.55 73.668 514.723 73.1029 514.077 72.336C513.471 71.5691 512.987 70.6206 512.624 69.4904C512.301 68.4006 512.099 67.109 512.018 65.6155H511.776C510.969 67.0283 510.101 68.3199 509.173 69.4904C508.204 70.6609 507.094 71.6498 505.843 72.4571C504.551 73.2644 503.098 73.89 501.483 74.334C499.869 74.778 498.012 75 495.913 75ZM497.609 69.4299C499.99 69.4299 502.069 68.9859 503.845 68.0979C505.621 67.2503 507.094 66.1403 508.264 64.7679C509.435 63.4359 510.323 61.9627 510.928 60.3481C511.493 58.7336 511.776 57.1998 511.776 55.7467V52.0535L503.602 52.2351C501.786 52.2755 500.05 52.3966 498.396 52.5984C496.781 52.8406 495.348 53.3047 494.097 53.9909C492.846 54.6771 491.857 55.6458 491.13 56.8971C490.404 58.1483 490.04 59.783 490.04 61.8012C490.04 64.223 490.706 66.0999 492.038 67.4319C493.33 68.7639 495.187 69.4299 497.609 69.4299ZM565.237 61.8012C565.237 63.9001 564.834 65.7568 564.026 67.3713C563.219 69.0262 562.048 70.4188 560.515 71.5489C558.941 72.6791 557.043 73.5267 554.823 74.0918C552.563 74.6973 549.98 75 547.074 75C544.49 75 542.149 74.7982 540.051 74.3945C537.992 73.9909 536.176 73.3451 534.601 72.4571C533.027 71.5691 531.695 70.3986 530.605 68.9455C529.556 67.5328 528.789 65.777 528.305 63.6781L534.844 62.3461C535.489 64.7679 536.801 66.5439 538.779 67.6741C540.797 68.7639 543.562 69.3088 547.074 69.3088C548.688 69.3088 550.162 69.2079 551.494 69.0061C552.825 68.7639 553.976 68.3804 554.945 67.8557C555.913 67.331 556.66 66.6044 557.185 65.6761C557.75 64.7881 558.032 63.6781 558.032 62.3461C558.032 61.0141 557.709 59.9041 557.064 59.0161C556.418 58.1685 555.53 57.442 554.4 56.8365C553.27 56.2714 551.897 55.7871 550.283 55.3835C548.668 54.9395 546.892 54.4551 544.955 53.9304C543.179 53.446 541.403 52.9213 539.627 52.3562C537.851 51.7911 536.256 51.0242 534.844 50.0555C533.431 49.0868 532.281 47.9162 531.393 46.5439C530.505 45.1312 530.061 43.3552 530.061 41.2159C530.061 37.1393 531.514 34.0313 534.42 31.892C537.326 29.7528 541.564 28.6831 547.134 28.6831C552.099 28.6831 556.034 29.551 558.941 31.2866C561.847 33.0222 563.683 35.8073 564.45 39.6418L557.73 40.4894C557.487 39.3189 557.043 38.3502 556.398 37.5832C555.711 36.776 554.904 36.1302 553.976 35.6458C553.048 35.1615 551.998 34.8184 550.828 34.6165C549.657 34.4147 548.426 34.3138 547.134 34.3138C543.784 34.3138 541.302 34.8184 539.687 35.8274C538.113 36.8769 537.326 38.4309 537.326 40.4894C537.326 41.7003 537.609 42.6892 538.174 43.4561C538.779 44.2634 539.607 44.9294 540.656 45.4541C541.746 45.9788 543.037 46.443 544.531 46.8466C546.024 47.2503 547.659 47.6741 549.435 48.1181C550.606 48.441 551.816 48.7639 553.068 49.0868C554.319 49.4501 555.53 49.8739 556.7 50.3582C557.871 50.8426 558.981 51.4077 560.03 52.0535C561.039 52.6993 561.927 53.4662 562.694 54.3542C563.502 55.2825 564.127 56.3522 564.571 57.5631C565.015 58.774 565.237 60.1867 565.237 61.8012Z"/>
</mask>
<path d="M148.567 44.7275C148.567 40.1665 149.193 36.0494 150.444 32.3764C151.655 28.7437 153.491 25.6357 155.954 23.0525C158.375 20.4692 161.403 18.4712 165.035 17.0585C168.628 15.6862 172.825 15 177.629 15C181.181 15 184.309 15.3027 187.013 15.9082C189.717 16.554 192.079 17.4823 194.097 18.6932C196.075 19.8638 197.75 21.2967 199.122 22.9919C200.494 24.6872 201.665 26.6044 202.634 28.7437L195.126 30.9839C194.4 29.5308 193.532 28.219 192.523 27.0484C191.514 25.8779 190.303 24.8688 188.89 24.0212C187.437 23.2139 185.762 22.5883 183.865 22.1443C181.968 21.6599 179.808 21.4178 177.387 21.4178C173.875 21.4178 170.807 21.9828 168.184 23.113C165.56 24.2028 163.401 25.777 161.705 27.8355C160.01 29.8537 158.739 32.2957 157.891 35.1615C157.043 38.0272 156.62 41.2159 156.62 44.7275C156.62 48.2392 157.084 51.448 158.012 54.3542C158.9 57.2603 160.252 59.783 162.069 61.9223C163.845 64.0212 166.065 65.6559 168.729 66.8264C171.393 67.997 174.48 68.5822 177.992 68.5822C180.293 68.5822 182.392 68.3804 184.289 67.9768C186.226 67.6135 187.982 67.109 189.556 66.4632C191.09 65.8577 192.462 65.1715 193.673 64.4046C194.844 63.6377 195.833 62.8708 196.64 62.1039V51.6297H179.203V44.9697H203.905V65.1312C202.614 66.4228 201.1 67.6741 199.364 68.885C197.588 70.0959 195.611 71.1453 193.431 72.0333C191.251 72.9617 188.87 73.6882 186.287 74.2129C183.703 74.7376 180.938 75 177.992 75C173.068 75 168.769 74.2533 165.096 72.7598C161.423 71.226 158.375 69.1271 155.954 66.4632C153.491 63.7588 151.655 60.5499 150.444 56.8365C149.193 53.1635 148.567 49.1271 148.567 44.7275ZM227.397 75C222.916 75 219.526 73.8093 217.225 71.4279C214.965 69.0464 213.835 65.7972 213.835 61.6801C213.835 58.7336 214.4 56.3118 215.53 54.4147C216.66 52.5177 218.133 51.0242 219.95 49.9344C221.726 48.885 223.784 48.1382 226.125 47.6942C228.426 47.2906 230.787 47.0686 233.209 47.0283L243.259 46.8466V44.4248C243.259 42.5681 243.058 40.9939 242.654 39.7023C242.291 38.4107 241.705 37.3613 240.898 36.554C240.091 35.7467 239.082 35.1615 237.871 34.7982C236.7 34.4349 235.288 34.2533 233.633 34.2533C232.22 34.2533 230.928 34.3542 229.758 34.556C228.587 34.7578 227.578 35.1211 226.731 35.6458C225.883 36.1705 225.197 36.8971 224.672 37.8254C224.147 38.7538 223.804 39.9243 223.643 41.337L215.833 40.671C216.115 38.8951 216.64 37.2603 217.407 35.7669C218.174 34.3138 219.284 33.0424 220.737 31.9526C222.149 30.8628 223.925 30.0353 226.065 29.4702C228.204 28.8648 230.787 28.5621 233.814 28.5621C239.425 28.5621 243.663 29.8537 246.529 32.4369C249.354 35.0202 250.767 38.7538 250.767 43.6377V62.891C250.767 65.111 251.07 66.7861 251.675 67.9162C252.24 69.0061 253.33 69.551 254.945 69.551C255.389 69.551 255.812 69.5308 256.216 69.4904C256.62 69.4501 257.023 69.3895 257.427 69.3088V73.9102C256.458 74.1524 255.51 74.3138 254.581 74.3945C253.693 74.5156 252.725 74.5762 251.675 74.5762C250.262 74.5762 249.051 74.3946 248.042 74.0313C247.033 73.668 246.206 73.1029 245.56 72.336C244.914 71.5691 244.43 70.6206 244.107 69.4904C243.784 68.4006 243.582 67.109 243.502 65.6155H243.259C242.452 67.0283 241.564 68.3199 240.595 69.4904C239.667 70.6609 238.557 71.6498 237.265 72.4571C236.014 73.2644 234.581 73.89 232.967 74.334C231.352 74.778 229.495 75 227.397 75ZM229.092 69.4299C231.473 69.4299 233.552 68.9859 235.328 68.0979C237.104 67.2503 238.577 66.1403 239.748 64.7679C240.918 63.4359 241.786 61.9627 242.351 60.3481C242.957 58.7336 243.259 57.1998 243.259 55.7467V52.0535L235.086 52.2351C233.269 52.2755 231.534 52.3966 229.879 52.5984C228.264 52.8406 226.832 53.3047 225.58 53.9909C224.329 54.6771 223.34 55.6458 222.614 56.8971C221.887 58.1483 221.524 59.783 221.524 61.8012C221.524 64.223 222.17 66.0999 223.461 67.4319C224.793 68.7639 226.67 69.4299 229.092 69.4299ZM296.721 61.8012C296.721 63.9001 296.317 65.7568 295.51 67.3713C294.702 69.0262 293.512 70.4188 291.937 71.5489C290.404 72.6791 288.507 73.5267 286.246 74.0918C284.026 74.6973 281.463 75 278.557 75C275.974 75 273.633 74.7982 271.534 74.3945C269.435 73.9909 267.598 73.3451 266.024 72.4571C264.45 71.5691 263.138 70.3986 262.089 68.9455C261.039 67.5328 260.272 65.777 259.788 63.6781L266.327 62.3461C266.973 64.7679 268.285 66.5439 270.262 67.6741C272.24 68.7639 275.005 69.3088 278.557 69.3088C280.172 69.3088 281.645 69.2079 282.977 69.0061C284.309 68.7639 285.459 68.3804 286.428 67.8557C287.397 67.331 288.143 66.6044 288.668 65.6761C289.193 64.7881 289.455 63.6781 289.455 62.3461C289.455 61.0141 289.152 59.9041 288.547 59.0161C287.901 58.1685 287.013 57.442 285.883 56.8365C284.753 56.2714 283.38 55.7871 281.766 55.3835C280.151 54.9395 278.375 54.4551 276.438 53.9304C274.662 53.446 272.886 52.9213 271.11 52.3562C269.334 51.7911 267.74 51.0242 266.327 50.0555C264.914 49.0868 263.764 47.9162 262.876 46.5439C261.988 45.1312 261.544 43.3552 261.544 41.2159C261.544 37.1393 262.997 34.0313 265.903 31.892C268.809 29.7528 273.047 28.6831 278.618 28.6831C283.582 28.6831 287.518 29.551 290.424 31.2866C293.33 33.0222 295.167 35.8073 295.933 39.6418L289.213 40.4894C288.971 39.3189 288.527 38.3502 287.881 37.5832C287.195 36.776 286.388 36.1302 285.459 35.6458C284.531 35.1615 283.481 34.8184 282.311 34.6165C281.14 34.4147 279.909 34.3138 278.618 34.3138C275.267 34.3138 272.785 34.8184 271.171 35.8274C269.596 36.8769 268.809 38.4309 268.809 40.4894C268.809 41.7003 269.092 42.6892 269.657 43.4561C270.262 44.2634 271.09 44.9294 272.139 45.4541C273.229 45.9788 274.521 46.443 276.014 46.8466C277.467 47.2503 279.102 47.6741 280.918 48.1181C282.089 48.441 283.3 48.7639 284.551 49.0868C285.802 49.4501 287.013 49.8739 288.184 50.3582C289.354 50.8426 290.464 51.4077 291.514 52.0535C292.523 52.6993 293.411 53.4662 294.178 54.3542C294.945 55.2825 295.57 56.3522 296.055 57.5631C296.499 58.774 296.721 60.1867 296.721 61.8012ZM339.102 61.8012C339.102 63.9001 338.698 65.7568 337.891 67.3713C337.084 69.0262 335.893 70.4188 334.319 71.5489C332.785 72.6791 330.888 73.5267 328.628 74.0918C326.408 74.6973 323.845 75 320.938 75C318.355 75 316.014 74.7982 313.915 74.3945C311.816 73.9909 309.98 73.3451 308.406 72.4571C306.832 71.5691 305.52 70.3986 304.47 68.9455C303.421 67.5328 302.654 65.777 302.17 63.6781L308.708 62.3461C309.354 64.7679 310.666 66.5439 312.644 67.6741C314.622 68.7639 317.387 69.3088 320.938 69.3088C322.553 69.3088 324.026 69.2079 325.358 69.0061C326.69 68.7639 327.841 68.3804 328.809 67.8557C329.778 67.331 330.525 66.6044 331.049 65.6761C331.574 64.7881 331.837 63.6781 331.837 62.3461C331.837 61.0141 331.534 59.9041 330.928 59.0161C330.283 58.1685 329.395 57.442 328.264 56.8365C327.134 56.2714 325.762 55.7871 324.147 55.3835C322.533 54.9395 320.757 54.4551 318.819 53.9304C317.043 53.446 315.267 52.9213 313.491 52.3562C311.715 51.7911 310.121 51.0242 308.708 50.0555C307.296 49.0868 306.145 47.9162 305.257 46.5439C304.369 45.1312 303.925 43.3552 303.925 41.2159C303.925 37.1393 305.378 34.0313 308.285 31.892C311.191 29.7528 315.429 28.6831 320.999 28.6831C325.964 28.6831 329.899 29.551 332.805 31.2866C335.711 33.0222 337.548 35.8073 338.315 39.6418L331.594 40.4894C331.352 39.3189 330.908 38.3502 330.262 37.5832C329.576 36.776 328.769 36.1302 327.841 35.6458C326.912 35.1615 325.863 34.8184 324.692 34.6165C323.522 34.4147 322.291 34.3138 320.999 34.3138C317.649 34.3138 315.167 34.8184 313.552 35.8274C311.978 36.8769 311.191 38.4309 311.191 40.4894C311.191 41.7003 311.473 42.6892 312.038 43.4561C312.644 44.2634 313.471 44.9294 314.521 45.4541C315.611 45.9788 316.902 46.443 318.396 46.8466C319.849 47.2503 321.483 47.6741 323.3 48.1181C324.47 48.441 325.681 48.7639 326.932 49.0868C328.184 49.4501 329.395 49.8739 330.565 50.3582C331.736 50.8426 332.846 51.4077 333.895 52.0535C334.904 52.6993 335.792 53.4662 336.559 54.3542C337.326 55.2825 337.952 56.3522 338.436 57.5631C338.88 58.774 339.102 60.1867 339.102 61.8012ZM365.076 68.3401V73.8496C363.946 74.1322 362.795 74.3744 361.625 74.5762C360.454 74.7376 359.102 74.8184 357.568 74.8184C351.594 74.8184 348.608 71.448 348.608 64.7074V34.7982H343.461V29.4097H348.91L351.09 19.3592H356.055V29.4097H364.349V34.7982H356.055V63.0727C356.055 65.2119 356.418 66.7255 357.144 67.6135C357.831 68.4611 359.041 68.885 360.777 68.885C361.504 68.885 362.21 68.8446 362.896 68.7639C363.542 68.6428 364.268 68.5015 365.076 68.3401ZM371.191 29.4097H378.698V57.8052C378.698 59.9849 378.86 61.8012 379.183 63.2543C379.506 64.7074 380.03 65.8779 380.757 66.7659C381.443 67.6539 382.392 68.2997 383.602 68.7033C384.773 69.0666 386.226 69.2482 387.962 69.2482C389.697 69.2482 391.292 68.9455 392.745 68.3401C394.157 67.6942 395.368 66.7861 396.377 65.6155C397.387 64.445 398.153 62.9919 398.678 61.2563C399.243 59.5611 399.526 57.5832 399.526 55.3229V29.4097H406.973V64.5863C406.973 65.555 406.973 66.5439 406.973 67.553C407.013 68.6024 407.033 69.5913 407.033 70.5197C407.074 71.448 407.114 72.2351 407.154 72.8809C407.195 73.5267 407.215 73.9506 407.215 74.1524H400.192C400.151 74.0313 400.131 73.668 400.131 73.0626C400.091 72.4571 400.05 71.7508 400.01 70.9435C399.97 70.1766 399.929 69.3895 399.889 68.5822C399.889 67.7346 399.889 67.0484 399.889 66.5237H399.707C399.021 67.8153 398.234 68.9859 397.346 70.0353C396.499 71.0848 395.51 71.9728 394.379 72.6993C393.249 73.4258 391.958 73.9909 390.505 74.3945C389.051 74.7982 387.356 75 385.419 75C382.916 75 380.777 74.6973 379.001 74.0918C377.225 73.4864 375.752 72.5378 374.581 71.2462C373.411 69.995 372.563 68.3804 372.038 66.4026C371.473 64.4248 371.191 62.0232 371.191 59.1978V29.4097ZM417.144 44.7275C417.144 40.1665 417.75 36.0494 418.961 32.3764C420.172 28.7437 422.008 25.6357 424.47 23.0525C426.892 20.4692 429.919 18.4712 433.552 17.0585C437.185 15.6862 441.382 15 446.145 15C449.738 15 452.886 15.3027 455.59 15.9082C458.295 16.554 460.636 17.4823 462.614 18.6932C464.591 19.8638 466.266 21.2967 467.639 22.9919C469.011 24.6872 470.182 26.6044 471.15 28.7437L463.643 30.9839C462.916 29.5308 462.048 28.219 461.039 27.0484C460.03 25.8779 458.819 24.8688 457.407 24.0212C455.954 23.2139 454.279 22.5883 452.381 22.1443C450.525 21.6599 448.365 21.4178 445.903 21.4178C442.392 21.4178 439.324 21.9828 436.7 23.113C434.117 24.2028 431.958 25.777 430.222 27.8355C428.527 29.8537 427.255 32.2957 426.408 35.1615C425.56 38.0272 425.136 41.2159 425.136 44.7275C425.136 48.2392 425.6 51.448 426.529 54.3542C427.417 57.2603 428.769 59.783 430.585 61.9223C432.361 64.0212 434.581 65.6559 437.245 66.8264C439.909 67.997 442.997 68.5822 446.509 68.5822C448.809 68.5822 450.928 68.3804 452.866 67.9768C454.763 67.6135 456.499 67.109 458.073 66.4632C459.647 65.8577 461.019 65.1715 462.19 64.4046C463.36 63.6377 464.349 62.8708 465.156 62.1039V51.6297H447.72V44.9697H472.482V65.1312C471.15 66.4228 469.617 67.6741 467.881 68.885C466.145 70.0959 464.188 71.1453 462.008 72.0333C459.829 72.9617 457.427 73.6882 454.803 74.2129C452.22 74.7376 449.455 75 446.509 75C441.584 75 437.286 74.2533 433.613 72.7598C429.939 71.226 426.892 69.1271 424.47 66.4632C422.008 63.7588 420.172 60.5499 418.961 56.8365C417.75 53.1635 417.144 49.1271 417.144 44.7275ZM495.913 75C491.433 75 488.063 73.8093 485.802 71.4279C483.542 69.0464 482.412 65.7972 482.412 61.6801C482.412 58.7336 482.957 56.3118 484.046 54.4147C485.177 52.5177 486.65 51.0242 488.466 49.9344C490.283 48.885 492.341 48.1382 494.642 47.6942C496.943 47.2906 499.304 47.0686 501.726 47.0283L511.776 46.8466V44.4248C511.776 42.5681 511.574 40.9939 511.171 39.7023C510.807 38.4107 510.222 37.3613 509.415 36.554C508.608 35.7467 507.598 35.1615 506.388 34.7982C505.217 34.4349 503.804 34.2533 502.149 34.2533C500.737 34.2533 499.445 34.3542 498.275 34.556C497.104 34.7578 496.095 35.1211 495.247 35.6458C494.4 36.1705 493.713 36.8971 493.189 37.8254C492.664 38.7538 492.321 39.9243 492.159 41.337L484.349 40.671C484.632 38.8951 485.156 37.2603 485.923 35.7669C486.731 34.3138 487.841 33.0424 489.253 31.9526C490.666 30.8628 492.442 30.0353 494.581 29.4702C496.721 28.8648 499.304 28.5621 502.331 28.5621C507.982 28.5621 512.22 29.8537 515.045 32.4369C517.871 35.0202 519.284 38.7538 519.284 43.6377V62.891C519.284 65.111 519.586 66.7861 520.192 67.9162C520.757 69.0061 521.847 69.551 523.461 69.551C523.905 69.551 524.329 69.5308 524.733 69.4904C525.136 69.4501 525.54 69.3895 525.944 69.3088V73.9102C524.975 74.1524 524.046 74.3138 523.158 74.3945C522.23 74.5156 521.241 74.5762 520.192 74.5762C518.779 74.5762 517.568 74.3946 516.559 74.0313C515.55 73.668 514.723 73.1029 514.077 72.336C513.471 71.5691 512.987 70.6206 512.624 69.4904C512.301 68.4006 512.099 67.109 512.018 65.6155H511.776C510.969 67.0283 510.101 68.3199 509.173 69.4904C508.204 70.6609 507.094 71.6498 505.843 72.4571C504.551 73.2644 503.098 73.89 501.483 74.334C499.869 74.778 498.012 75 495.913 75ZM497.609 69.4299C499.99 69.4299 502.069 68.9859 503.845 68.0979C505.621 67.2503 507.094 66.1403 508.264 64.7679C509.435 63.4359 510.323 61.9627 510.928 60.3481C511.493 58.7336 511.776 57.1998 511.776 55.7467V52.0535L503.602 52.2351C501.786 52.2755 500.05 52.3966 498.396 52.5984C496.781 52.8406 495.348 53.3047 494.097 53.9909C492.846 54.6771 491.857 55.6458 491.13 56.8971C490.404 58.1483 490.04 59.783 490.04 61.8012C490.04 64.223 490.706 66.0999 492.038 67.4319C493.33 68.7639 495.187 69.4299 497.609 69.4299ZM565.237 61.8012C565.237 63.9001 564.834 65.7568 564.026 67.3713C563.219 69.0262 562.048 70.4188 560.515 71.5489C558.941 72.6791 557.043 73.5267 554.823 74.0918C552.563 74.6973 549.98 75 547.074 75C544.49 75 542.149 74.7982 540.051 74.3945C537.992 73.9909 536.176 73.3451 534.601 72.4571C533.027 71.5691 531.695 70.3986 530.605 68.9455C529.556 67.5328 528.789 65.777 528.305 63.6781L534.844 62.3461C535.489 64.7679 536.801 66.5439 538.779 67.6741C540.797 68.7639 543.562 69.3088 547.074 69.3088C548.688 69.3088 550.162 69.2079 551.494 69.0061C552.825 68.7639 553.976 68.3804 554.945 67.8557C555.913 67.331 556.66 66.6044 557.185 65.6761C557.75 64.7881 558.032 63.6781 558.032 62.3461C558.032 61.0141 557.709 59.9041 557.064 59.0161C556.418 58.1685 555.53 57.442 554.4 56.8365C553.27 56.2714 551.897 55.7871 550.283 55.3835C548.668 54.9395 546.892 54.4551 544.955 53.9304C543.179 53.446 541.403 52.9213 539.627 52.3562C537.851 51.7911 536.256 51.0242 534.844 50.0555C533.431 49.0868 532.281 47.9162 531.393 46.5439C530.505 45.1312 530.061 43.3552 530.061 41.2159C530.061 37.1393 531.514 34.0313 534.42 31.892C537.326 29.7528 541.564 28.6831 547.134 28.6831C552.099 28.6831 556.034 29.551 558.941 31.2866C561.847 33.0222 563.683 35.8073 564.45 39.6418L557.73 40.4894C557.487 39.3189 557.043 38.3502 556.398 37.5832C555.711 36.776 554.904 36.1302 553.976 35.6458C553.048 35.1615 551.998 34.8184 550.828 34.6165C549.657 34.4147 548.426 34.3138 547.134 34.3138C543.784 34.3138 541.302 34.8184 539.687 35.8274C538.113 36.8769 537.326 38.4309 537.326 40.4894C537.326 41.7003 537.609 42.6892 538.174 43.4561C538.779 44.2634 539.607 44.9294 540.656 45.4541C541.746 45.9788 543.037 46.443 544.531 46.8466C546.024 47.2503 547.659 47.6741 549.435 48.1181C550.606 48.441 551.816 48.7639 553.068 49.0868C554.319 49.4501 555.53 49.8739 556.7 50.3582C557.871 50.8426 558.981 51.4077 560.03 52.0535C561.039 52.6993 561.927 53.4662 562.694 54.3542C563.502 55.2825 564.127 56.3522 564.571 57.5631C565.015 58.774 565.237 60.1867 565.237 61.8012Z" fill="#362120"/>
<path d="M148.567 44.7275C148.567 40.1665 149.193 36.0494 150.444 32.3764C151.655 28.7437 153.491 25.6357 155.954 23.0525C158.375 20.4692 161.403 18.4712 165.035 17.0585C168.628 15.6862 172.825 15 177.629 15C181.181 15 184.309 15.3027 187.013 15.9082C189.717 16.554 192.079 17.4823 194.097 18.6932C196.075 19.8638 197.75 21.2967 199.122 22.9919C200.494 24.6872 201.665 26.6044 202.634 28.7437L195.126 30.9839C194.4 29.5308 193.532 28.219 192.523 27.0484C191.514 25.8779 190.303 24.8688 188.89 24.0212C187.437 23.2139 185.762 22.5883 183.865 22.1443C181.968 21.6599 179.808 21.4178 177.387 21.4178C173.875 21.4178 170.807 21.9828 168.184 23.113C165.56 24.2028 163.401 25.777 161.705 27.8355C160.01 29.8537 158.739 32.2957 157.891 35.1615C157.043 38.0272 156.62 41.2159 156.62 44.7275C156.62 48.2392 157.084 51.448 158.012 54.3542C158.9 57.2603 160.252 59.783 162.069 61.9223C163.845 64.0212 166.065 65.6559 168.729 66.8264C171.393 67.997 174.48 68.5822 177.992 68.5822C180.293 68.5822 182.392 68.3804 184.289 67.9768C186.226 67.6135 187.982 67.109 189.556 66.4632C191.09 65.8577 192.462 65.1715 193.673 64.4046C194.844 63.6377 195.833 62.8708 196.64 62.1039V51.6297H179.203V44.9697H203.905V65.1312C202.614 66.4228 201.1 67.6741 199.364 68.885C197.588 70.0959 195.611 71.1453 193.431 72.0333C191.251 72.9617 188.87 73.6882 186.287 74.2129C183.703 74.7376 180.938 75 177.992 75C173.068 75 168.769 74.2533 165.096 72.7598C161.423 71.226 158.375 69.1271 155.954 66.4632C153.491 63.7588 151.655 60.5499 150.444 56.8365C149.193 53.1635 148.567 49.1271 148.567 44.7275ZM227.397 75C222.916 75 219.526 73.8093 217.225 71.4279C214.965 69.0464 213.835 65.7972 213.835 61.6801C213.835 58.7336 214.4 56.3118 215.53 54.4147C216.66 52.5177 218.133 51.0242 219.95 49.9344C221.726 48.885 223.784 48.1382 226.125 47.6942C228.426 47.2906 230.787 47.0686 233.209 47.0283L243.259 46.8466V44.4248C243.259 42.5681 243.058 40.9939 242.654 39.7023C242.291 38.4107 241.705 37.3613 240.898 36.554C240.091 35.7467 239.082 35.1615 237.871 34.7982C236.7 34.4349 235.288 34.2533 233.633 34.2533C232.22 34.2533 230.928 34.3542 229.758 34.556C228.587 34.7578 227.578 35.1211 226.731 35.6458C225.883 36.1705 225.197 36.8971 224.672 37.8254C224.147 38.7538 223.804 39.9243 223.643 41.337L215.833 40.671C216.115 38.8951 216.64 37.2603 217.407 35.7669C218.174 34.3138 219.284 33.0424 220.737 31.9526C222.149 30.8628 223.925 30.0353 226.065 29.4702C228.204 28.8648 230.787 28.5621 233.814 28.5621C239.425 28.5621 243.663 29.8537 246.529 32.4369C249.354 35.0202 250.767 38.7538 250.767 43.6377V62.891C250.767 65.111 251.07 66.7861 251.675 67.9162C252.24 69.0061 253.33 69.551 254.945 69.551C255.389 69.551 255.812 69.5308 256.216 69.4904C256.62 69.4501 257.023 69.3895 257.427 69.3088V73.9102C256.458 74.1524 255.51 74.3138 254.581 74.3945C253.693 74.5156 252.725 74.5762 251.675 74.5762C250.262 74.5762 249.051 74.3946 248.042 74.0313C247.033 73.668 246.206 73.1029 245.56 72.336C244.914 71.5691 244.43 70.6206 244.107 69.4904C243.784 68.4006 243.582 67.109 243.502 65.6155H243.259C242.452 67.0283 241.564 68.3199 240.595 69.4904C239.667 70.6609 238.557 71.6498 237.265 72.4571C236.014 73.2644 234.581 73.89 232.967 74.334C231.352 74.778 229.495 75 227.397 75ZM229.092 69.4299C231.473 69.4299 233.552 68.9859 235.328 68.0979C237.104 67.2503 238.577 66.1403 239.748 64.7679C240.918 63.4359 241.786 61.9627 242.351 60.3481C242.957 58.7336 243.259 57.1998 243.259 55.7467V52.0535L235.086 52.2351C233.269 52.2755 231.534 52.3966 229.879 52.5984C228.264 52.8406 226.832 53.3047 225.58 53.9909C224.329 54.6771 223.34 55.6458 222.614 56.8971C221.887 58.1483 221.524 59.783 221.524 61.8012C221.524 64.223 222.17 66.0999 223.461 67.4319C224.793 68.7639 226.67 69.4299 229.092 69.4299ZM296.721 61.8012C296.721 63.9001 296.317 65.7568 295.51 67.3713C294.702 69.0262 293.512 70.4188 291.937 71.5489C290.404 72.6791 288.507 73.5267 286.246 74.0918C284.026 74.6973 281.463 75 278.557 75C275.974 75 273.633 74.7982 271.534 74.3945C269.435 73.9909 267.598 73.3451 266.024 72.4571C264.45 71.5691 263.138 70.3986 262.089 68.9455C261.039 67.5328 260.272 65.777 259.788 63.6781L266.327 62.3461C266.973 64.7679 268.285 66.5439 270.262 67.6741C272.24 68.7639 275.005 69.3088 278.557 69.3088C280.172 69.3088 281.645 69.2079 282.977 69.0061C284.309 68.7639 285.459 68.3804 286.428 67.8557C287.397 67.331 288.143 66.6044 288.668 65.6761C289.193 64.7881 289.455 63.6781 289.455 62.3461C289.455 61.0141 289.152 59.9041 288.547 59.0161C287.901 58.1685 287.013 57.442 285.883 56.8365C284.753 56.2714 283.38 55.7871 281.766 55.3835C280.151 54.9395 278.375 54.4551 276.438 53.9304C274.662 53.446 272.886 52.9213 271.11 52.3562C269.334 51.7911 267.74 51.0242 266.327 50.0555C264.914 49.0868 263.764 47.9162 262.876 46.5439C261.988 45.1312 261.544 43.3552 261.544 41.2159C261.544 37.1393 262.997 34.0313 265.903 31.892C268.809 29.7528 273.047 28.6831 278.618 28.6831C283.582 28.6831 287.518 29.551 290.424 31.2866C293.33 33.0222 295.167 35.8073 295.933 39.6418L289.213 40.4894C288.971 39.3189 288.527 38.3502 287.881 37.5832C287.195 36.776 286.388 36.1302 285.459 35.6458C284.531 35.1615 283.481 34.8184 282.311 34.6165C281.14 34.4147 279.909 34.3138 278.618 34.3138C275.267 34.3138 272.785 34.8184 271.171 35.8274C269.596 36.8769 268.809 38.4309 268.809 40.4894C268.809 41.7003 269.092 42.6892 269.657 43.4561C270.262 44.2634 271.09 44.9294 272.139 45.4541C273.229 45.9788 274.521 46.443 276.014 46.8466C277.467 47.2503 279.102 47.6741 280.918 48.1181C282.089 48.441 283.3 48.7639 284.551 49.0868C285.802 49.4501 287.013 49.8739 288.184 50.3582C289.354 50.8426 290.464 51.4077 291.514 52.0535C292.523 52.6993 293.411 53.4662 294.178 54.3542C294.945 55.2825 295.57 56.3522 296.055 57.5631C296.499 58.774 296.721 60.1867 296.721 61.8012ZM339.102 61.8012C339.102 63.9001 338.698 65.7568 337.891 67.3713C337.084 69.0262 335.893 70.4188 334.319 71.5489C332.785 72.6791 330.888 73.5267 328.628 74.0918C326.408 74.6973 323.845 75 320.938 75C318.355 75 316.014 74.7982 313.915 74.3945C311.816 73.9909 309.98 73.3451 308.406 72.4571C306.832 71.5691 305.52 70.3986 304.47 68.9455C303.421 67.5328 302.654 65.777 302.17 63.6781L308.708 62.3461C309.354 64.7679 310.666 66.5439 312.644 67.6741C314.622 68.7639 317.387 69.3088 320.938 69.3088C322.553 69.3088 324.026 69.2079 325.358 69.0061C326.69 68.7639 327.841 68.3804 328.809 67.8557C329.778 67.331 330.525 66.6044 331.049 65.6761C331.574 64.7881 331.837 63.6781 331.837 62.3461C331.837 61.0141 331.534 59.9041 330.928 59.0161C330.283 58.1685 329.395 57.442 328.264 56.8365C327.134 56.2714 325.762 55.7871 324.147 55.3835C322.533 54.9395 320.757 54.4551 318.819 53.9304C317.043 53.446 315.267 52.9213 313.491 52.3562C311.715 51.7911 310.121 51.0242 308.708 50.0555C307.296 49.0868 306.145 47.9162 305.257 46.5439C304.369 45.1312 303.925 43.3552 303.925 41.2159C303.925 37.1393 305.378 34.0313 308.285 31.892C311.191 29.7528 315.429 28.6831 320.999 28.6831C325.964 28.6831 329.899 29.551 332.805 31.2866C335.711 33.0222 337.548 35.8073 338.315 39.6418L331.594 40.4894C331.352 39.3189 330.908 38.3502 330.262 37.5832C329.576 36.776 328.769 36.1302 327.841 35.6458C326.912 35.1615 325.863 34.8184 324.692 34.6165C323.522 34.4147 322.291 34.3138 320.999 34.3138C317.649 34.3138 315.167 34.8184 313.552 35.8274C311.978 36.8769 311.191 38.4309 311.191 40.4894C311.191 41.7003 311.473 42.6892 312.038 43.4561C312.644 44.2634 313.471 44.9294 314.521 45.4541C315.611 45.9788 316.902 46.443 318.396 46.8466C319.849 47.2503 321.483 47.6741 323.3 48.1181C324.47 48.441 325.681 48.7639 326.932 49.0868C328.184 49.4501 329.395 49.8739 330.565 50.3582C331.736 50.8426 332.846 51.4077 333.895 52.0535C334.904 52.6993 335.792 53.4662 336.559 54.3542C337.326 55.2825 337.952 56.3522 338.436 57.5631C338.88 58.774 339.102 60.1867 339.102 61.8012ZM365.076 68.3401V73.8496C363.946 74.1322 362.795 74.3744 361.625 74.5762C360.454 74.7376 359.102 74.8184 357.568 74.8184C351.594 74.8184 348.608 71.448 348.608 64.7074V34.7982H343.461V29.4097H348.91L351.09 19.3592H356.055V29.4097H364.349V34.7982H356.055V63.0727C356.055 65.2119 356.418 66.7255 357.144 67.6135C357.831 68.4611 359.041 68.885 360.777 68.885C361.504 68.885 362.21 68.8446 362.896 68.7639C363.542 68.6428 364.268 68.5015 365.076 68.3401ZM371.191 29.4097H378.698V57.8052C378.698 59.9849 378.86 61.8012 379.183 63.2543C379.506 64.7074 380.03 65.8779 380.757 66.7659C381.443 67.6539 382.392 68.2997 383.602 68.7033C384.773 69.0666 386.226 69.2482 387.962 69.2482C389.697 69.2482 391.292 68.9455 392.745 68.3401C394.157 67.6942 395.368 66.7861 396.377 65.6155C397.387 64.445 398.153 62.9919 398.678 61.2563C399.243 59.5611 399.526 57.5832 399.526 55.3229V29.4097H406.973V64.5863C406.973 65.555 406.973 66.5439 406.973 67.553C407.013 68.6024 407.033 69.5913 407.033 70.5197C407.074 71.448 407.114 72.2351 407.154 72.8809C407.195 73.5267 407.215 73.9506 407.215 74.1524H400.192C400.151 74.0313 400.131 73.668 400.131 73.0626C400.091 72.4571 400.05 71.7508 400.01 70.9435C399.97 70.1766 399.929 69.3895 399.889 68.5822C399.889 67.7346 399.889 67.0484 399.889 66.5237H399.707C399.021 67.8153 398.234 68.9859 397.346 70.0353C396.499 71.0848 395.51 71.9728 394.379 72.6993C393.249 73.4258 391.958 73.9909 390.505 74.3945C389.051 74.7982 387.356 75 385.419 75C382.916 75 380.777 74.6973 379.001 74.0918C377.225 73.4864 375.752 72.5378 374.581 71.2462C373.411 69.995 372.563 68.3804 372.038 66.4026C371.473 64.4248 371.191 62.0232 371.191 59.1978V29.4097ZM417.144 44.7275C417.144 40.1665 417.75 36.0494 418.961 32.3764C420.172 28.7437 422.008 25.6357 424.47 23.0525C426.892 20.4692 429.919 18.4712 433.552 17.0585C437.185 15.6862 441.382 15 446.145 15C449.738 15 452.886 15.3027 455.59 15.9082C458.295 16.554 460.636 17.4823 462.614 18.6932C464.591 19.8638 466.266 21.2967 467.639 22.9919C469.011 24.6872 470.182 26.6044 471.15 28.7437L463.643 30.9839C462.916 29.5308 462.048 28.219 461.039 27.0484C460.03 25.8779 458.819 24.8688 457.407 24.0212C455.954 23.2139 454.279 22.5883 452.381 22.1443C450.525 21.6599 448.365 21.4178 445.903 21.4178C442.392 21.4178 439.324 21.9828 436.7 23.113C434.117 24.2028 431.958 25.777 430.222 27.8355C428.527 29.8537 427.255 32.2957 426.408 35.1615C425.56 38.0272 425.136 41.2159 425.136 44.7275C425.136 48.2392 425.6 51.448 426.529 54.3542C427.417 57.2603 428.769 59.783 430.585 61.9223C432.361 64.0212 434.581 65.6559 437.245 66.8264C439.909 67.997 442.997 68.5822 446.509 68.5822C448.809 68.5822 450.928 68.3804 452.866 67.9768C454.763 67.6135 456.499 67.109 458.073 66.4632C459.647 65.8577 461.019 65.1715 462.19 64.4046C463.36 63.6377 464.349 62.8708 465.156 62.1039V51.6297H447.72V44.9697H472.482V65.1312C471.15 66.4228 469.617 67.6741 467.881 68.885C466.145 70.0959 464.188 71.1453 462.008 72.0333C459.829 72.9617 457.427 73.6882 454.803 74.2129C452.22 74.7376 449.455 75 446.509 75C441.584 75 437.286 74.2533 433.613 72.7598C429.939 71.226 426.892 69.1271 424.47 66.4632C422.008 63.7588 420.172 60.5499 418.961 56.8365C417.75 53.1635 417.144 49.1271 417.144 44.7275ZM495.913 75C491.433 75 488.063 73.8093 485.802 71.4279C483.542 69.0464 482.412 65.7972 482.412 61.6801C482.412 58.7336 482.957 56.3118 484.046 54.4147C485.177 52.5177 486.65 51.0242 488.466 49.9344C490.283 48.885 492.341 48.1382 494.642 47.6942C496.943 47.2906 499.304 47.0686 501.726 47.0283L511.776 46.8466V44.4248C511.776 42.5681 511.574 40.9939 511.171 39.7023C510.807 38.4107 510.222 37.3613 509.415 36.554C508.608 35.7467 507.598 35.1615 506.388 34.7982C505.217 34.4349 503.804 34.2533 502.149 34.2533C500.737 34.2533 499.445 34.3542 498.275 34.556C497.104 34.7578 496.095 35.1211 495.247 35.6458C494.4 36.1705 493.713 36.8971 493.189 37.8254C492.664 38.7538 492.321 39.9243 492.159 41.337L484.349 40.671C484.632 38.8951 485.156 37.2603 485.923 35.7669C486.731 34.3138 487.841 33.0424 489.253 31.9526C490.666 30.8628 492.442 30.0353 494.581 29.4702C496.721 28.8648 499.304 28.5621 502.331 28.5621C507.982 28.5621 512.22 29.8537 515.045 32.4369C517.871 35.0202 519.284 38.7538 519.284 43.6377V62.891C519.284 65.111 519.586 66.7861 520.192 67.9162C520.757 69.0061 521.847 69.551 523.461 69.551C523.905 69.551 524.329 69.5308 524.733 69.4904C525.136 69.4501 525.54 69.3895 525.944 69.3088V73.9102C524.975 74.1524 524.046 74.3138 523.158 74.3945C522.23 74.5156 521.241 74.5762 520.192 74.5762C518.779 74.5762 517.568 74.3946 516.559 74.0313C515.55 73.668 514.723 73.1029 514.077 72.336C513.471 71.5691 512.987 70.6206 512.624 69.4904C512.301 68.4006 512.099 67.109 512.018 65.6155H511.776C510.969 67.0283 510.101 68.3199 509.173 69.4904C508.204 70.6609 507.094 71.6498 505.843 72.4571C504.551 73.2644 503.098 73.89 501.483 74.334C499.869 74.778 498.012 75 495.913 75ZM497.609 69.4299C499.99 69.4299 502.069 68.9859 503.845 68.0979C505.621 67.2503 507.094 66.1403 508.264 64.7679C509.435 63.4359 510.323 61.9627 510.928 60.3481C511.493 58.7336 511.776 57.1998 511.776 55.7467V52.0535L503.602 52.2351C501.786 52.2755 500.05 52.3966 498.396 52.5984C496.781 52.8406 495.348 53.3047 494.097 53.9909C492.846 54.6771 491.857 55.6458 491.13 56.8971C490.404 58.1483 490.04 59.783 490.04 61.8012C490.04 64.223 490.706 66.0999 492.038 67.4319C493.33 68.7639 495.187 69.4299 497.609 69.4299ZM565.237 61.8012C565.237 63.9001 564.834 65.7568 564.026 67.3713C563.219 69.0262 562.048 70.4188 560.515 71.5489C558.941 72.6791 557.043 73.5267 554.823 74.0918C552.563 74.6973 549.98 75 547.074 75C544.49 75 542.149 74.7982 540.051 74.3945C537.992 73.9909 536.176 73.3451 534.601 72.4571C533.027 71.5691 531.695 70.3986 530.605 68.9455C529.556 67.5328 528.789 65.777 528.305 63.6781L534.844 62.3461C535.489 64.7679 536.801 66.5439 538.779 67.6741C540.797 68.7639 543.562 69.3088 547.074 69.3088C548.688 69.3088 550.162 69.2079 551.494 69.0061C552.825 68.7639 553.976 68.3804 554.945 67.8557C555.913 67.331 556.66 66.6044 557.185 65.6761C557.75 64.7881 558.032 63.6781 558.032 62.3461C558.032 61.0141 557.709 59.9041 557.064 59.0161C556.418 58.1685 555.53 57.442 554.4 56.8365C553.27 56.2714 551.897 55.7871 550.283 55.3835C548.668 54.9395 546.892 54.4551 544.955 53.9304C543.179 53.446 541.403 52.9213 539.627 52.3562C537.851 51.7911 536.256 51.0242 534.844 50.0555C533.431 49.0868 532.281 47.9162 531.393 46.5439C530.505 45.1312 530.061 43.3552 530.061 41.2159C530.061 37.1393 531.514 34.0313 534.42 31.892C537.326 29.7528 541.564 28.6831 547.134 28.6831C552.099 28.6831 556.034 29.551 558.941 31.2866C561.847 33.0222 563.683 35.8073 564.45 39.6418L557.73 40.4894C557.487 39.3189 557.043 38.3502 556.398 37.5832C555.711 36.776 554.904 36.1302 553.976 35.6458C553.048 35.1615 551.998 34.8184 550.828 34.6165C549.657 34.4147 548.426 34.3138 547.134 34.3138C543.784 34.3138 541.302 34.8184 539.687 35.8274C538.113 36.8769 537.326 38.4309 537.326 40.4894C537.326 41.7003 537.609 42.6892 538.174 43.4561C538.779 44.2634 539.607 44.9294 540.656 45.4541C541.746 45.9788 543.037 46.443 544.531 46.8466C546.024 47.2503 547.659 47.6741 549.435 48.1181C550.606 48.441 551.816 48.7639 553.068 49.0868C554.319 49.4501 555.53 49.8739 556.7 50.3582C557.871 50.8426 558.981 51.4077 560.03 52.0535C561.039 52.6993 561.927 53.4662 562.694 54.3542C563.502 55.2825 564.127 56.3522 564.571 57.5631C565.015 58.774 565.237 60.1867 565.237 61.8012Z" stroke="white" stroke-width="5" mask="url(#path-1-outside-1_509_97)"/>
<path d="M46.5983 37.687L45.7147 36.8034L44.8308 37.6868L38.3998 44.114L37.5123 45.001L38.4027 45.8851L56.8655 64.2192L45.7144 75.3703L15.3423 44.9981L45.7144 14.626L49.6528 18.5644L50.5367 19.4483L51.4206 18.5644L57.8478 12.1372L58.7317 11.2533L57.8478 10.3694L46.5983 -0.880134L45.7144 -1.76402L44.8305 -0.880134L-0.167575 44.118L-1.05146 45.0019L-0.167575 45.8858L44.8305 90.8839L45.7145 91.7678L46.5984 90.8838L72.3111 65.1674L73.1948 64.2835L72.311 63.3997L46.5983 37.687ZM85.1692 -0.883883L84.2852 -1.7679L83.4013 -0.883754L57.6924 24.8327L56.8088 25.7166L57.6925 26.6003L83.4052 52.313L84.2891 53.1969L85.173 52.313L91.6002 45.8858L92.4872 44.9988L91.5971 44.1149L73.1342 25.7808L84.2853 14.6297L114.657 45.0019L84.2853 75.374L80.3469 71.4356L79.463 70.5517L78.5791 71.4356L72.1519 77.8628L71.268 78.7467L72.1519 79.6306L83.4014 90.8801L84.2853 91.764L85.1692 90.8801L130.167 45.882L131.051 44.9981L130.167 44.1142L85.1692 -0.883883Z" fill="url(#paint0_linear_509_97)" stroke="white" stroke-width="2.5"/>
</g>
<defs>
<linearGradient id="paint0_linear_509_97" x1="0.716309" y1="0" x2="11652.9" y2="5433.48" gradientUnits="userSpaceOnUse">
<stop stop-color="#5A0E1D"/>
<stop offset="1" stop-color="#B39984"/>
</linearGradient>
<clipPath id="clip0_509_97">
<rect width="566" height="90" fill="white"/>
</clipPath>
</defs>
</svg>
